<svg width="40" height="32" viewBox="0 0 40 32" fill="none" xmlns="http://www.w3.org/2000/svg">
<g clip-path="url(#clip0_42:3337)">
<path d="M19.5082 19.7231L18.5484 12.9829C18.3941 11.8997 18.0817 10.8603 17.6329 9.89034C14.852 9.83981 13.0285 8.21632 13.0285 8.21632L12.9672 8.16754C14.1497 9.68234 14.9389 11.4931 15.2169 13.445L16.1767 20.1851C16.6077 23.2116 19.443 25.3202 22.5095 24.8948L25.841 24.4327C22.7744 24.8581 19.9392 22.7495 19.5082 19.7231Z" fill="#F1E5F9"/>
<path d="M31.2712 24.7971L22.6655 25.9908C18.9915 26.5003 15.5824 23.965 15.0661 20.3391L14.1063 13.5989C13.6263 10.2283 11.4797 7.34447 8.36425 5.88459C7.80476 5.62244 7.56654 4.96234 7.83217 4.41016C8.09779 3.85793 8.76658 3.62284 9.3262 3.88509C11.1047 4.71847 12.6241 5.93223 13.7974 7.40959C14.0336 7.60689 15.9241 9.09988 18.6215 8.72575L31.4092 6.95206C33.1069 6.71659 34.7874 7.25611 36.0197 8.43235C37.252 9.6086 37.8545 11.248 37.6729 12.9305L37.0254 18.9252C36.6978 21.958 34.3316 24.3726 31.2712 24.7971ZM15.6779 10.7379C15.9824 11.554 16.2016 12.4087 16.3272 13.2909L17.287 20.0311C17.6313 22.4483 19.904 24.1386 22.3533 23.7988L30.959 22.6052C32.9993 22.3222 34.5767 20.7124 34.7951 18.6906L35.4426 12.6958C35.5506 11.6963 35.1926 10.7223 34.4604 10.0235C33.7283 9.32463 32.7299 9.00411 31.7213 9.144L18.9336 10.9177C17.7136 11.0869 16.6148 10.9746 15.6779 10.7379ZM22.5394 29.0817C22.4317 28.3251 21.7228 27.7979 20.9562 27.9042C20.1896 28.0106 19.6554 28.7101 19.7632 29.4667C19.8709 30.2233 20.5798 30.7505 21.3464 30.6442C22.113 30.5378 22.6472 29.8383 22.5394 29.0817ZM33.5888 27.5491C33.4811 26.7925 32.7723 26.2653 32.0056 26.3717C31.239 26.478 30.7049 27.1776 30.8126 27.9342C30.9203 28.6908 31.6292 29.2179 32.3958 29.1116C33.1624 29.0052 33.6966 28.3057 33.5888 27.5491Z" fill="#C490E4"/>
<path d="M32.3458 13.5278L20.0022 15.2399C19.3889 15.325 18.8219 14.9033 18.7357 14.298C18.6495 13.6927 19.0768 13.1331 19.6901 13.048L32.0337 11.3359C32.647 11.2508 33.214 11.6726 33.3002 12.2779C33.3864 12.8832 32.9591 13.4428 32.3458 13.5278Z" fill="#C490E4"/>
</g>
<rect width="11.1615" height="1.18083" rx="0.590414" transform="matrix(0.990517 -0.137387 0.140982 0.990012 0.797363 18.4544)" fill="#C490E4"/>
<rect width="9.56698" height="1.18083" rx="0.590415" transform="matrix(0.990467 -0.13775 0.14061 0.990065 0 22.1703)" fill="#C490E4"/>
<rect width="6.37799" height="1.18083" rx="0.590415" transform="matrix(0.990517 -0.137387 0.140982 0.990012 3.9873 25.2738)" fill="#C490E4"/>
<path d="M1.16027 6.17442C1.1143 5.8516 1.33886 5.55358 1.66185 5.50878L5.03195 5.04134C5.35493 4.99654 5.65403 5.22193 5.7 5.54475C5.74597 5.86757 5.52141 6.16558 5.19842 6.21038L1.82832 6.67782C1.50534 6.72262 1.20624 6.49724 1.16027 6.17442Z" fill="#C490E4"/>
<defs>
<clipPath id="clip0_42:3337">
<rect width="28.701" height="28.3399" fill="white" transform="matrix(0.990517 -0.137387 0.140982 0.990012 7.57581 3.94312)"/>
</clipPath>
</defs>
</svg>
