<svg width="24" height="24" viewBox="0 0 24 24" fill="none" xmlns="http://www.w3.org/2000/svg">
<g clip-path="url(#clip0_109:4076)">
<path fill-rule="evenodd" clip-rule="evenodd" d="M7.1395 14.3547C5.23083 12.8926 4 10.59 4 8C4 3.58172 7.58172 0 12 0C16.4183 0 20 3.58172 20 8C20 10.5895 18.7696 12.8917 16.8616 14.3538L17.9913 22.8685C18.0418 23.2491 17.8699 23.6251 17.549 23.8358C17.228 24.0466 16.8148 24.055 16.4855 23.8575L12 21.1662L7.5145 23.8575C7.18522 24.0551 6.7719 24.0466 6.45096 23.8358C6.13002 23.625 5.95815 23.249 6.00871 22.8683L7.1395 14.3547ZM6 8C6 4.68629 8.68629 2 12 2C15.3137 2 18 4.68629 18 8C18 10.0815 16.9401 11.9154 15.3305 12.9915C15.2735 13.021 15.2198 13.0558 15.1702 13.0951C14.2503 13.6686 13.1639 14 12 14C8.68629 14 6 11.3137 6 8ZM14.9861 15.4241C14.0634 15.7956 13.0556 16 12 16C10.9448 16 9.93733 15.7957 9.01497 15.4245L8.26444 21.0751L11.4855 19.1425C11.8022 18.9525 12.1978 18.9525 12.5145 19.1425L15.7359 21.0753L14.9861 15.4241Z" fill="#14141C"/>
</g>
<defs>
<clipPath id="clip0_109:4076">
<rect width="24" height="24" fill="white"/>
</clipPath>
</defs>
</svg>
