<svg width="24" height="24" viewBox="0 0 24 24" fill="none" xmlns="http://www.w3.org/2000/svg">
<g clip-path="url(#clip0_434_5109)">
<path d="M13.2285 0.922029C13.0575 0.781029 12.831 0.722529 12.612 0.763029L0.612 3.01303C0.2565 3.07903 0 3.38803 0 3.74953V20.2495C0 20.6095 0.2565 20.92 0.612 20.986L12.612 23.236C12.657 23.245 12.705 23.2495 12.75 23.2495C12.9225 23.2495 13.0935 23.1895 13.2285 23.077C13.401 22.9345 13.5 22.7215 13.5 22.4995V1.49953C13.5 1.27603 13.401 1.06453 13.2285 0.922029ZM12 21.595L1.5 19.627V4.37203L12 2.40403V21.595Z" fill="#3D8C61" stroke="#3D8C61" stroke-width="0.5"/>
<path d="M23.25 3.74954H12.75C12.336 3.74954 12 4.08554 12 4.49954C12 4.91354 12.336 5.24954 12.75 5.24954H22.5V18.7495H12.75C12.336 18.7495 12 19.0855 12 19.4995C12 19.9135 12.336 20.2495 12.75 20.2495H23.25C23.664 20.2495 24 19.9135 24 19.4995V4.49954C24 4.08554 23.664 3.74954 23.25 3.74954Z" fill="#3D8C61" stroke="#3D8C61" stroke-width="0.5"/>
<path d="M15.75 6.74954H12.75C12.336 6.74954 12 7.08554 12 7.49954C12 7.91354 12.336 8.24954 12.75 8.24954H15.75C16.164 8.24954 16.5 7.91354 16.5 7.49954C16.5 7.08554 16.164 6.74954 15.75 6.74954Z" fill="#3D8C61" stroke="#3D8C61" stroke-width="0.5"/>
<path d="M15.75 9.74954H12.75C12.336 9.74954 12 10.0855 12 10.4995C12 10.9135 12.336 11.2495 12.75 11.2495H15.75C16.164 11.2495 16.5 10.9135 16.5 10.4995C16.5 10.0855 16.164 9.74954 15.75 9.74954Z" fill="#3D8C61" stroke="#3D8C61" stroke-width="0.5"/>
<path d="M15.75 12.7495H12.75C12.336 12.7495 12 13.0855 12 13.4995C12 13.9135 12.336 14.2495 12.75 14.2495H15.75C16.164 14.2495 16.5 13.9135 16.5 13.4995C16.5 13.0855 16.164 12.7495 15.75 12.7495Z" fill="#3D8C61" stroke="#3D8C61" stroke-width="0.5"/>
<path d="M15.75 15.7495H12.75C12.336 15.7495 12 16.0855 12 16.4995C12 16.9135 12.336 17.2495 12.75 17.2495H15.75C16.164 17.2495 16.5 16.9135 16.5 16.4995C16.5 16.0855 16.164 15.7495 15.75 15.7495Z" fill="#3D8C61" stroke="#3D8C61" stroke-width="0.5"/>
<path d="M20.25 6.74954H18.75C18.336 6.74954 18 7.08554 18 7.49954C18 7.91354 18.336 8.24954 18.75 8.24954H20.25C20.664 8.24954 21 7.91354 21 7.49954C21 7.08554 20.664 6.74954 20.25 6.74954Z" fill="#3D8C61" stroke="#3D8C61" stroke-width="0.5"/>
<path d="M20.25 9.74954H18.75C18.336 9.74954 18 10.0855 18 10.4995C18 10.9135 18.336 11.2495 18.75 11.2495H20.25C20.664 11.2495 21 10.9135 21 10.4995C21 10.0855 20.664 9.74954 20.25 9.74954Z" fill="#3D8C61" stroke="#3D8C61" stroke-width="0.5"/>
<path d="M20.25 12.7495H18.75C18.336 12.7495 18 13.0855 18 13.4995C18 13.9135 18.336 14.2495 18.75 14.2495H20.25C20.664 14.2495 21 13.9135 21 13.4995C21 13.0855 20.664 12.7495 20.25 12.7495Z" fill="#3D8C61" stroke="#3D8C61" stroke-width="0.5"/>
<path d="M20.25 15.7495H18.75C18.336 15.7495 18 16.0855 18 16.4995C18 16.9135 18.336 17.2495 18.75 17.2495H20.25C20.664 17.2495 21 16.9135 21 16.4995C21 16.0855 20.664 15.7495 20.25 15.7495Z" fill="#3D8C61" stroke="#3D8C61" stroke-width="0.5"/>
<path d="M10.3153 14.506L5.06529 8.50604C4.78929 8.19254 4.31679 8.16254 4.00629 8.43554C3.69429 8.70854 3.66279 9.18254 3.93579 9.49304L9.18579 15.493C9.33429 15.6625 9.54129 15.7495 9.74979 15.7495C9.92529 15.7495 10.1008 15.688 10.2448 15.5635C10.5568 15.2905 10.5883 14.818 10.3153 14.506Z" fill="#3D8C61" stroke="#3D8C61" stroke-width="0.5"/>
<path d="M10.2105 7.65854C9.88352 7.40204 9.41252 7.46354 9.15752 7.78904L3.90752 14.539C3.65402 14.866 3.71252 15.3385 4.03952 15.592C4.17752 15.6985 4.33952 15.7495 4.50002 15.7495C4.72202 15.7495 4.94402 15.6505 5.09102 15.4615L10.341 8.71154C10.596 8.38304 10.5375 7.91204 10.2105 7.65854Z" fill="#3D8C61" stroke="#3D8C61" stroke-width="0.5"/>
</g>
<defs>
<clipPath id="clip0_434_5109">
<rect width="24" height="24" fill="white"/>
</clipPath>
</defs>
</svg>
