<svg width="24" height="24" viewBox="0 0 24 24" fill="none" xmlns="http://www.w3.org/2000/svg">
<path fill-rule="evenodd" clip-rule="evenodd" d="M4 2C3.20435 2 2.44129 2.31607 1.87868 2.87868C1.31607 3.44129 1 4.20435 1 5V19C1 19.7957 1.31607 20.5587 1.87868 21.1213C2.44129 21.6839 3.20435 22 4 22H20C20.7957 22 21.5587 21.6839 22.1213 21.1213C22.6839 20.5587 23 19.7957 23 19V8C23 7.20435 22.6839 6.44129 22.1213 5.87868C21.5587 5.31607 20.7957 5 20 5H11.5352L9.83205 2.4453C9.64658 2.1671 9.33435 2 9 2H4ZM3.29289 4.29289C3.48043 4.10536 3.73478 4 4 4H8.46482L10.1679 6.5547C10.3534 6.8329 10.6656 7 11 7H20C20.2652 7 20.5196 7.10536 20.7071 7.29289C20.8946 7.48043 21 7.73478 21 8V19C21 19.2652 20.8946 19.5196 20.7071 19.7071C20.5196 19.8946 20.2652 20 20 20H4C3.73478 20 3.48043 19.8946 3.29289 19.7071C3.10536 19.5196 3 19.2652 3 19V5C3 4.73478 3.10536 4.48043 3.29289 4.29289Z" fill="#14141C"/>
</svg>
