<svg width="24" height="24" viewBox="0 0 24 24" fill="none" xmlns="http://www.w3.org/2000/svg">
<path d="M2 1C1.44772 1 1 1.44772 1 2V4.5C1 4.77614 1.22386 5 1.5 5C1.77614 5 2 5.22386 2 5.5V18.5C2 18.7761 1.77614 19 1.5 19C1.22386 19 1 19.2239 1 19.5V22C1 22.5523 1.44772 23 2 23H4.5C4.77614 23 5 22.7761 5 22.5C5 22.2239 5.22386 22 5.5 22H18.5C18.7761 22 19 22.2239 19 22.5C19 22.7761 19.2239 23 19.5 23H22C22.5523 23 23 22.5523 23 22V19.5C23 19.2239 22.7761 19 22.5 19C22.2239 19 22 18.7761 22 18.5V5.5C22 5.22386 22.2239 5 22.5 5C22.7761 5 23 4.77614 23 4.5V2C23 1.44772 22.5523 1 22 1H19.5C19.2239 1 19 1.22386 19 1.5C19 1.77614 18.7761 2 18.5 2H5.5C5.22386 2 5 1.77614 5 1.5C5 1.22386 4.77614 1 4.5 1H2ZM5 4.5C5 4.22386 5.22386 4 5.5 4H18.5C18.7761 4 19 4.22386 19 4.5C19 4.77614 19.2239 5 19.5 5C19.7761 5 20 5.22386 20 5.5V18.5C20 18.7761 19.7761 19 19.5 19C19.2239 19 19 19.2239 19 19.5C19 19.7761 18.7761 20 18.5 20H5.5C5.22386 20 5 19.7761 5 19.5C5 19.2239 4.77614 19 4.5 19C4.22386 19 4 18.7761 4 18.5V5.5C4 5.22386 4.22386 5 4.5 5C4.77614 5 5 4.77614 5 4.5ZM7 6C6.44772 6 6 6.44772 6 7V13C6 13.5523 6.44772 14 7 14H8C8.55228 14 9 14.4477 9 15V17C9 17.5523 9.44771 18 10 18H17C17.5523 18 18 17.5523 18 17V10C18 9.44771 17.5523 9 17 9H15C14.4477 9 14 8.55228 14 8V7C14 6.44772 13.5523 6 13 6H7ZM8 9C8 8.44772 8.44772 8 9 8H11C11.5523 8 12 8.44772 12 9V11C12 11.5523 11.5523 12 11 12H9C8.44772 12 8 11.5523 8 11V9ZM14 11H15C15.5523 11 16 11.4477 16 12V15C16 15.5523 15.5523 16 15 16H12C11.4477 16 11 15.5523 11 15C11 14.4477 11.4477 14 12 14H14" fill="#FFFFFF"/>
</svg>
