<svg width="24" height="24" viewBox="0 0 24 24" fill="none" xmlns="http://www.w3.org/2000/svg">
<path fill-rule="evenodd" clip-rule="evenodd" d="M21.7071 2.70711C22.0977 2.31658 22.0977 1.68342 21.7071 1.29289C21.3166 0.902369 20.6834 0.902369 20.2929 1.29289L11.3239 10.2619C10.2168 9.47819 8.88446 9.0554 7.51163 9.06733C5.80736 9.08214 4.17707 9.76574 2.97192 10.9709C1.76677 12.176 1.08317 13.8063 1.06836 15.5106C1.05355 17.2149 1.70871 18.8568 2.89274 20.0827L2.9002 20.0904C3.5023 20.7006 4.21916 21.1857 5.0095 21.5177C5.79984 21.8497 6.64806 22.0221 7.50531 22.025C8.36256 22.0279 9.21192 21.8612 10.0045 21.5344C10.797 21.2077 11.5171 20.7274 12.1233 20.1213C12.7295 19.5151 13.2097 18.795 13.5365 18.0024C13.8632 17.2099 14.0299 16.3605 14.0271 15.5033C14.0242 14.646 13.8518 13.7978 13.5197 13.0075C13.3185 12.5285 13.061 12.0765 12.7536 11.6607L15.5 8.91421L17.7929 11.2071C18.1834 11.5976 18.8166 11.5976 19.2071 11.2071L22.7071 7.70711C23.0977 7.31658 23.0977 6.68342 22.7071 6.29289L20.4142 4L21.7071 2.70711ZM10.6943 12.3303C10.7034 12.339 10.7126 12.3476 10.7219 12.3559C11.1283 12.7656 11.4522 13.2498 11.6758 13.7821C11.9057 14.3293 12.0251 14.9165 12.0271 15.51C12.0291 16.1035 11.9136 16.6915 11.6874 17.2402C11.4612 17.7889 11.1287 18.2874 10.7091 18.707C10.2894 19.1267 9.79089 19.4592 9.2422 19.6854C8.69351 19.9116 8.10549 20.027 7.51201 20.025C6.91853 20.023 6.3313 19.9037 5.78414 19.6738C5.23863 19.4446 4.74368 19.1101 4.32763 18.6895C3.51025 17.8412 3.05805 16.7061 3.06829 15.528C3.07854 14.3481 3.5518 13.2194 4.38613 12.3851C5.22047 11.5508 6.34913 11.0775 7.52901 11.0673C8.7089 11.057 9.84561 11.5106 10.6943 12.3303ZM18.5 9.08579L16.9142 7.5L19 5.41421L20.5858 7L18.5 9.08579Z" fill="#14141C"/>
</svg>
