<svg width="24" height="24" viewBox="0 0 24 24" fill="none" xmlns="http://www.w3.org/2000/svg">
<path d="M4.29289 4.29289C4.48043 4.10536 4.73478 4 5 4H9C9.55228 4 10 3.55228 10 3C10 2.44772 9.55228 2 9 2H5C4.20435 2 3.44129 2.31607 2.87868 2.87868C2.31607 3.44129 2 4.20435 2 5V19C2 19.7957 2.31607 20.5587 2.87868 21.1213C3.44129 21.6839 4.20435 22 5 22H9C9.55228 22 10 21.5523 10 21C10 20.4477 9.55228 20 9 20H5C4.73478 20 4.48043 19.8946 4.29289 19.7071C4.10536 19.5196 4 19.2652 4 19V5C4 4.73478 4.10536 4.48043 4.29289 4.29289Z" fill="#FFFFFF"/>
<path d="M16.7071 6.29289C16.3166 5.90237 15.6834 5.90237 15.2929 6.29289C14.9024 6.68342 14.9024 7.31658 15.2929 7.70711L19.5858 12L15.2929 16.2929C14.9024 16.6834 14.9024 17.3166 15.2929 17.7071C15.6834 18.0976 16.3166 18.0976 16.7071 17.7071L21.7071 12.7071C22.0976 12.3166 22.0976 11.6834 21.7071 11.2929L16.7071 6.29289Z" fill="#FFFFFF"/>
<path d="M9 11C8.44772 11 8 11.4477 8 12C8 12.5523 8.44772 13 9 13H21C21.5523 13 22 12.5523 22 12C22 11.4477 21.5523 11 21 11H9Z" fill="#FFFFFF"/>
</svg>
