<svg width="24" height="24" viewBox="0 0 24 24" fill="none" xmlns="http://www.w3.org/2000/svg">
<path d="M18.9499 8.25C19.4282 8.25 19.8396 8.58868 19.9314 9.05808L20.2736 10.8081C20.3944 11.4257 19.9215 12 19.2922 12H4.70783C4.07853 12 3.60564 11.4257 3.72642 10.8081L4.06864 9.05808C4.16044 8.58868 4.57176 8.25 5.05005 8.25H18.9499ZM21.7778 3C21.7778 2.44772 21.3301 2 20.7778 2H3.22222C2.66994 2 2.22222 2.44772 2.22222 3V3.5C2.22222 4.05228 2.66994 4.5 3.22222 4.5H20.7778C21.3301 4.5 21.7778 4.05228 21.7778 3.5V3ZM21.9358 6.55808C21.844 6.08868 21.4327 5.75 20.9544 5.75H3.04561C2.56732 5.75 2.15599 6.08868 2.0642 6.55808L1.01859 11.9049C1.00623 11.9682 1 12.0324 1 12.0969V13.8889C1 14.2264 1.2736 14.5 1.61111 14.5C1.94862 14.5 2.22222 14.7736 2.22222 15.1111V21C2.22222 21.5523 2.66994 22 3.22222 22H13.4444C13.9967 22 14.4444 21.5523 14.4444 21V15.5C14.4444 14.9477 14.8922 14.5 15.4444 14.5H18.3333C18.8856 14.5 19.3333 14.9477 19.3333 15.5V21C19.3333 21.5523 19.781 22 20.3333 22H20.7778C21.3301 22 21.7778 21.5523 21.7778 21V15.1111C21.7778 14.7736 22.0514 14.5 22.3889 14.5C22.7264 14.5 23 14.2264 23 13.8889V12.0969C23 12.0324 22.9938 11.9682 22.9814 11.9049L21.9358 6.55808ZM5.66667 19.5C5.11438 19.5 4.66667 19.0523 4.66667 18.5V15.5C4.66667 14.9477 5.11438 14.5 5.66667 14.5H11C11.5523 14.5 12 14.9477 12 15.5V18.5C12 19.0523 11.5523 19.5 11 19.5H5.66667Z" fill="#FFFFFF"/>
</svg>
