<svg width="24" height="24" viewBox="0 0 24 24" fill="none" xmlns="http://www.w3.org/2000/svg">
<path d="M16.0618 21H7.93815C7.66883 21 7.41054 20.8946 7.22011 20.7071C7.02967 20.5196 6.92269 20.2652 6.92269 20V12.07L5.60258 13.12C5.20655 13.5 4.56681 13.5 4.17078 13.12L1.29702 10.29C0.900992 9.9 0.900992 9.27 1.29702 8.88L7.26794 3H8.95361C8.95361 4.1 9.96907 6 12 7.25C14.0309 6 15.0464 4.1 15.0464 3H16.7321L22.703 8.88C23.099 9.27 23.099 9.9 22.703 10.29L19.8292 13.12C19.4332 13.5 18.7934 13.5 18.3974 13.12L17.0773 12.07V20C17.0773 20.2652 16.9703 20.5196 16.7799 20.7071C16.5895 20.8946 16.3312 21 16.0618 21ZM20.5502 9.58L16.1736 5.28C15.0464 7 14.0309 8.25 12 9.25C9.96907 8.25 8.95361 7 7.82645 5.28L3.4498 9.58L4.89176 11L7.93815 9H8.95361V19H15.0464V9H16.0618L19.1082 11L20.5502 9.58Z" fill="#FFFFFF"/>
</svg>
