<svg width="16" height="14" viewBox="0 0 16 14" fill="none" xmlns="http://www.w3.org/2000/svg">
<path d="M6.66667 6.33334C6.29848 6.33334 6 6.63182 6 7.00001C6 7.3682 6.29848 7.66668 6.66667 7.66668H9.33333C9.70152 7.66668 10 7.3682 10 7.00001C10 6.63182 9.70152 6.33334 9.33333 6.33334H6.66667Z" fill="#14141C"/>
<path fill-rule="evenodd" clip-rule="evenodd" d="M0 1.00001C0 0.63182 0.298477 0.333344 0.666667 0.333344H15.3333C15.7015 0.333344 16 0.63182 16 1.00001V4.33334C16 4.70153 15.7015 5.00001 15.3333 5.00001H14.6667V13C14.6667 13.3682 14.3682 13.6667 14 13.6667H2C1.63181 13.6667 1.33333 13.3682 1.33333 13V5.00001H0.666667C0.298477 5.00001 0 4.70153 0 4.33334V1.00001ZM13.3333 12.3333V5.00001H2.66667V12.3333H13.3333ZM14.6667 3.66668H1.33333V1.66668H14.6667V3.66668Z" fill="#14141C"/>
</svg>
